<?xml version="1.0" standalone="no"?><!DOCTYPE svg PUBLIC "-//W3C//DTD SVG 1.1//EN" "http://www.w3.org/Graphics/SVG/1.1/DTD/svg11.dtd"><svg t="1585968914112" class="icon" viewBox="0 0 1024 1024" version="1.1" xmlns="http://www.w3.org/2000/svg" p-id="2438" width="32" height="32" xmlns:xlink="http://www.w3.org/1999/xlink"><defs><style type="text/css"></style></defs><path d="M1008.64 395.946667c-3.413333-8.533333-10.24-15.36-20.48-17.066667l-314.026667-47.786667-139.946666-285.013333c-3.413333-8.533333-13.653333-13.653333-22.186667-13.653333-10.24 0-18.773333 5.12-22.186667 13.653333l-141.653333 288.426667-312.32 44.373333c-8.533333 1.706667-17.066667 8.533333-20.48 17.066667-3.413333 8.533333 0 18.773333 6.826667 25.6l225.28 225.28-52.906667 317.44c-1.706667 10.24 1.706667 18.773333 10.24 23.893333 8.533333 5.12 18.773333 6.826667 27.306667 1.706667L512 839.68l279.893333 148.48c3.413333 1.706667 6.826667 3.413333 11.946667 3.413333 5.12 0 10.24-1.706667 15.36-5.12 8.533333-5.12 11.946667-13.653333 10.24-23.893333l-52.906667-317.44 226.986667-225.28c6.826667-3.413333 8.533333-13.653333 5.12-23.893333zM730.453333 619.52c-5.12 5.12-8.533333 13.653333-6.826666 22.186667L773.12 921.6l-249.173333-133.12c-3.413333-1.706667-8.533333-3.413333-11.946667-3.413333V112.64l124.586667 254.293333c3.413333 6.826667 10.24 11.946667 18.773333 13.653334l276.48 40.96-201.386667 197.973333z m0 0" fill="#FCB813" p-id="2439"></path></svg>